# xmcd
#
# Track frame offsets: 
#        150
#        14750
#        50967
#        67781
#        92951
#        104781
#        123838
#        141873
#        161007
#        178509
#        196404
#
# Disc length: 3012 seconds
#
# Revision: 0
# Processed by: cddbd v1.5.2PL0 Copyright (c) Steve Scherf et al.
# Submitted via: ExactAudioCopy v0.95b2
#
DISCID=a20bc20b
DTITLE=Sergio Caputo - Ne approfitto per fare un po' di musica
DYEAR=1987
DGENRE=
TTITLE0=Il Garibalodi innamorato
TTITLE1=L'astronave che arriva
TTITLE2=Trio vocale militare
TTITLE3=T'ho incontrata domani
TTITLE4=Spicchio di luna
TTITLE5=Vado alle hawaii
TTITLE6=Hemingway caffè latino
TTITLE7=Un sabato italiano
TTITLE8=Mercy Bocù
TTITLE9=La jena si è svegliata
TTITLE10=Bimba se sapessi
EXTD=
EXTT0=
EXTT1=
EXTT2=
EXTT3=
EXTT4=
EXTT5=
EXTT6=
EXTT7=
EXTT8=
EXTT9=
EXTT10=
PLAYORDER=
